Coordinates
version=1
nRows=26
nColumns=24
inDegrees=yes

Units are S.I. units (second, meters, Newtons, ...)
Angles are in degrees.

endheader
time	pelvis_tilt	pelvis_list	pelvis_rotation	pelvis_tx	pelvis_ty	pelvis_tz	hip_flexion_r	hip_adduction_r	hip_rotation_r	knee_angle_r	ankle_angle_r	subtalar_angle_r	mtp_angle_r	hip_flexion_l	hip_adduction_l	hip_rotation_l	knee_angle_l	ankle_angle_l	subtalar_angle_l	mtp_angle_l	lumbar_extension	lumbar_bending	lumbar_rotation
      0.95750000	     -2.65116814	     -2.54225332	     -1.14393891	     -0.10131453	      0.97802584	      0.30871087	     -9.59485802	      6.20019536	     -5.45417700	     -9.10270484	     14.03925570	      2.09415333	      3.43666634	     26.75183156	     -0.57755055	     -2.13169285	     -6.52354956	     -0.27023936	     -4.77519357	     -2.56528645	     -1.46269390	      6.22640999	      6.97241171
      0.96166667	     -2.73731889	     -2.50294529	     -1.16453769	     -0.09545828	      0.97738515	      0.30833097	     -9.52425938	      6.08490692	     -5.47471567	     -9.78027624	     14.17371994	      2.21907470	      3.45797219	     26.69787099	     -0.44609232	     -1.99687195	     -6.44556640	     -0.48436671	     -4.88874976	     -2.42198511	     -1.31201293	      6.20338665	      7.02264447
      0.96583333	     -2.81499076	     -2.43686537	     -1.17699133	     -0.08957777	      0.97682204	      0.30795047	     -9.44626422	      5.94448532	     -5.45632864	    -10.48861087	     14.26415296	      2.22654324	      3.48543305	     26.64090317	     -0.28818418	     -1.86889910	     -6.45271082	     -0.74685298	     -4.98931015	     -2.28064556	     -1.18870753	      6.13756444	      7.04065217
      0.97000000	     -2.88789065	     -2.36128387	     -1.18786582	     -0.08367289	      0.97631659	      0.30755952	     -9.34607428	      5.79167168	     -5.43000383	    -11.24868929	     14.33216775	      2.21802123	      3.52697157	     26.57199205	     -0.11969337	     -1.70770963	     -6.51341762	     -1.03556838	     -5.15055840	     -2.11580009	     -1.06730994	      6.06517576	      7.05819203
      0.97416667	     -2.91625678	     -2.24519616	     -1.19337393	     -0.07771271	      0.97591669	      0.30712209	     -9.25550420	      5.57741857	     -5.49662522	    -12.08020031	     14.35363410	      2.39423553	      4.01275027	     26.43730606	      0.09493966	     -1.52837548	     -6.59997714	     -1.39669856	     -5.46672645	     -0.49895480	     -1.00109881	      5.93929028	      7.04572474
      0.97833333	     -3.08589824	     -2.20265768	     -1.20263518	     -0.07181688	      0.97537788	      0.30674952	     -8.99200248	      5.47185733	     -5.36600482	    -12.94496712	     14.32944377	      2.16045004	      4.05460570	     26.49900044	      0.22147530	     -1.34316670	     -6.81936985	     -1.71509845	     -5.59521281	     -0.41326090	     -0.75442830	      5.91028476	      7.06033901
      0.98250000	     -3.17323917	     -2.11103673	     -1.20589614	     -0.06586303	      0.97500866	      0.30635215	     -8.78578415	      5.30231924	     -5.29324571	    -13.87116561	     14.29449074	      2.02205112	      4.12738321	     26.44592205	      0.40305148	     -1.13717631	     -7.03673568	     -2.08547276	     -5.87707817	     -0.29280046	     -0.60515250	      5.80973686	      7.06374486
      0.98666667	     -3.28048921	     -2.01301006	     -1.20908401	     -0.05987972	      0.97465752	      0.30593722	     -8.52407373	      5.12110941	     -5.23198343	    -14.85618626	     14.20195693	      1.91027813	      4.21710843	     26.40950977	      0.58928894	     -0.92657132	     -7.28447397	     -2.46930965	     -6.16334511	     -0.16708099	     -0.43356179	      5.70120503	      7.04717754
      0.99083333	     -3.37646693	     -1.90289469	     -1.20718977	     -0.05388516	      0.97436272	      0.30550277	     -8.23582335	      4.92309240	     -5.17862609	    -15.90753392	     14.06294969	      1.79952032	      4.33477583	     26.36038325	      0.78898217	     -0.70739788	     -7.56399455	     -2.87209254	     -6.49549196	     -0.02679916	     -0.26999913	      5.58892397	      7.02135709
      0.99500000	     -3.47485309	     -1.79302719	     -1.20247320	     -0.04788060	      0.97410609	      0.30507326	     -7.90596497	      4.72338220	     -5.12951360	    -17.02769589	     13.86881495	      1.68596979	      4.48348066	     26.31493255	      0.98509116	     -0.49297710	     -7.86842277	     -3.28546381	     -6.84708132	      0.12409746	     -0.09609558	      5.45869626	      6.98901774
      0.99916667	     -3.57504071	     -1.67349691	     -1.18980787	     -0.04187811	      0.97387882	      0.30460777	     -7.53289689	      4.50781143	     -5.09679864	    -18.21472667	     13.62046534	      1.58830271	      4.69938541	     26.27939271	      1.19463638	     -0.27347510	     -8.20887378	     -3.71074724	     -7.26194344	      0.31181667	      0.07308794	      5.32686226	      6.94949033
      1.00333333	     -3.63619047	     -1.51475355	     -1.16570395	     -0.03582079	      0.97373147	      0.30409977	     -7.16132558	      4.22780121	     -5.16049413	    -19.46050051	     13.20861742	      1.61282340	      8.45718794	     26.19644847	      1.44264057	     -0.10627945	     -8.55357844	     -4.14684463	     -7.62343181	      3.08216909	      0.20463182	      5.14987016	      6.86702380
      1.00750000	     -3.73724452	     -1.38868709	     -1.16140174	     -0.02981427	      0.97359338	      0.30365563	     -6.71281208	      4.00731284	     -5.06134897	    -20.76182888	     12.81792939	      1.36505844	      8.51551361	     26.15736816	      1.64509338	      0.07625701	     -8.91407776	     -4.55787614	     -7.99335957	      3.07355329	      0.37976098	      5.00609478	      6.83239312
      1.01166667	     -3.82974292	     -1.24278286	     -1.14065716	     -0.02381480	      0.97347576	      0.30315399	     -6.22068496	      3.74894253	     -5.03687341	    -22.14889654	     12.37131779	      1.26203973	      8.64024241	     26.12464598	      1.87491884	      0.25345740	     -9.31704698	     -4.93414319	     -8.40195782	      3.07371145	      0.54098464	      4.84395796	      6.76758513
      1.01583333	     -3.90063103	     -1.06298134	     -1.12171917	     -0.01779979	      0.97341717	      0.30262628	     -5.70222317	      3.43813513	     -5.04834839	    -23.61557263	     11.85604930	      1.23262685	      8.94000677	     26.04645205	      2.13989122	      0.44709734	     -9.68708455	     -5.26056776	     -8.84396598	      3.08775643	      0.68466099	      4.63635396	      6.69193335
      1.02000000	     -3.94212261	     -0.85491264	     -1.07805438	     -0.01177698	      0.97342190	      0.30203854	     -5.17478889	      3.08109001	     -5.12662274	    -25.14329979	     11.26881113	      1.25135013	      9.99086028	     25.93062398	      2.44300316	      0.63499280	    -10.04203975	     -5.67725341	     -9.29707087	      3.13395856	      0.78979326	      4.39679856	      6.60951272
      1.02416667	     -4.01134199	     -0.66020916	     -1.09025041	     -0.00580321	      0.97342820	      0.30153760	     -4.57312134	      2.74017791	     -5.08611740	    -26.70982684	     10.47160685	      1.20017226	     13.02809540	     25.86519616	      2.70099080	      0.72036888	    -10.45199296	     -5.96113726	     -9.70270561	      3.21045228	      0.92493042	      4.18336360	      6.51342745
      1.02833333	     -4.10939726	     -0.48507692	     -1.04685243	      0.00014912	      0.97338404	      0.30101082	     -3.90485358	      2.43013518	     -5.08800451	    -28.33599173	      9.67241791	      1.05416630	     13.10056785	     25.87082699	      2.94656390	      0.78696791	    -10.94736333	     -6.04444292	     -9.79174276	      3.21045291	      1.10373056	      3.98227845	      6.41781134
      1.03250000	     -4.18353773	     -0.27604511	     -1.01361901	      0.00604737	      0.97337725	      0.30044962	     -3.20982068	      2.06465863	     -5.09842827	    -30.03701799	      8.84938725	      1.04964901	     13.27389523	     25.84757984	      3.23185041	      0.87296864	    -11.43596772	     -6.17089425	    -10.11770114	      3.20041698	      1.23137430	      3.74376150	      6.31228158
      1.03666667	     -4.22177043	     -0.03486263	     -0.98095932	      0.01196166	      0.97345301	      0.29987778	     -2.52218622	      1.65232767	     -5.12214684	    -31.77174615	      7.91725471	      1.05470448	     13.48986007	     25.76150879	      3.54818317	      0.94658227	    -11.88136062	     -6.24749298	    -10.39375698	      3.18395774	      1.32749811	      3.46775511	      6.20320734
      1.04083333	     -4.24673485	      0.22517379	     -0.95239709	      0.01787417	      0.97356769	      0.29931406	     -1.81594625	      1.21342081	     -5.13666314	    -33.54299399	      6.90792199	      1.02113853	     13.67649828	     25.64637452	      3.87860447	      1.00171435	    -12.30277369	     -6.23712372	    -10.58598791	      3.16684622	      1.41756376	      3.17423790	      6.08996659
      1.04500000	     -4.25260019	      0.50377940	     -0.90797901	      0.02371872	      0.97367820	      0.29869848	     -1.09650052	      0.73807083	     -5.17488902	    -35.33937791	      5.79680960	      1.00240180	     18.71308424	     25.52935540	      4.24122274	      1.08092643	    -12.76344449	     -6.16184242	    -10.88292126	      2.54634936	      1.45727607	      2.85300491	      5.95767593
      1.04916667	     -4.25956219	      0.77816736	     -0.86371483	      0.02953710	      0.97381393	      0.29812871	     -0.35114879	      0.27937951	     -5.17107800	    -37.15982142	      4.66662690	      0.96457644	     18.72999042	     25.41623747	      4.58829153	      1.10444127	    -13.22866969	     -6.03046943	    -11.04245754	      2.54548125	      1.50486458	      2.53353203	      5.83830505
      1.05333333	     -4.25161923	      1.07065799	     -0.82255307	      0.03533516	      0.97397392	      0.29756249	      0.40596312	     -0.20580235	     -5.16192843	    -39.00379714	      3.51563328	      0.91518706	     18.75698436	     25.26639040	      4.95220646	      1.12624432	    -13.65375910	     -5.83530456	    -11.17620759	      2.53829628	      1.53985289	      2.20150278	      5.71083596
      1.05750000	     -4.25134372	      1.37319570	     -0.77585179	      0.04108091	      0.97412509	      0.29698831	      1.19201808	     -0.69736226	     -5.12174723	    -40.85169784	      2.34031002	      0.85510283	     18.78454326	     25.12770968	      5.32958903	      1.15512486	    -14.08612484	     -5.59003958	    -11.30143156	      2.52683479	      1.57141206	      1.85945872	      5.57724154
      1.06166667	     -4.23262468	      1.67609352	     -0.72154531	      0.04678945	      0.97430768	      0.29642178	      1.97734000	     -1.19516258	     -5.09568311	    -42.70127862	      1.14846221	      0.79712282	     18.81256893	     24.96038345	      5.70712534	      1.16435073	    -14.49690200	     -5.31825360	    -11.42783082	      2.50721031	      1.58048635	      1.50737715	      5.43660460
